<svg xmlns="http://www.w3.org/2000/svg" xmlns:xlink="http://www.w3.org/1999/xlink" viewBox="0 0 280 248.293">
  <defs>
    <style>
      .cls-1 {
        fill: url(#linear-gradient);
      }

      .cls-2 {
        fill: #f5f5f5;
      }

      .cls-3 {
        fill: url(#linear-gradient-3);
      }

      .cls-12, .cls-4 {
        fill: #fff;
      }

      .cls-5, .cls-6 {
        fill: #6c63ff;
      }

      .cls-12, .cls-16, .cls-5, .cls-7 {
        opacity: 0.2;
      }

      .cls-8 {
        fill: #3ad29f;
      }

      .cls-16, .cls-9 {
        fill: none;
      }

      .cls-9 {
        stroke: #3ad29f;
        stroke-width: 3px;
      }

      .cls-10, .cls-13, .cls-16, .cls-9 {
        stroke-miterlimit: 10;
      }

      .cls-10, .cls-13 {
        fill: #fccc63;
        stroke: #37474f;
        stroke-width: 5px;
      }

      .cls-10 {
        stroke-linecap: round;
      }

      .cls-11 {
        fill: #cfd8dc;
      }

      .cls-14 {
        fill: #f2f2f2;
      }

      .cls-15 {
        fill: #985454;
      }

      .cls-16 {
        stroke: #fff;
        stroke-width: 4px;
      }

      .cls-17 {
        fill: url(#linear-gradient-7);
      }

      .cls-18 {
        opacity: 0.6;
      }

      .cls-19 {
        fill: url(#linear-gradient-8);
      }

      .cls-20 {
        fill: url(#linear-gradient-9);
      }
    </style>
    <linearGradient id="linear-gradient" x1="0.5" y1="1" x2="0.5" gradientUnits="objectBoundingBox">
      <stop offset="0" stop-color="gray" stop-opacity="0.251"/>
      <stop offset="0.54" stop-color="gray" stop-opacity="0.122"/>
      <stop offset="1" stop-color="gray" stop-opacity="0.102"/>
    </linearGradient>
    <linearGradient id="linear-gradient-3" x1="0.062" y1="1.221" x2="0.062" y2="0.221" xlink:href="#linear-gradient"/>
    <linearGradient id="linear-gradient-7" x1="0.497" y1="0.772" x2="0.497" y2="0.158" xlink:href="#linear-gradient"/>
    <linearGradient id="linear-gradient-8" x1="0.51" y1="0.842" x2="0.51" y2="0.227" xlink:href="#linear-gradient"/>
    <linearGradient id="linear-gradient-9" y1="0.5" x2="1" y2="0.5" gradientUnits="objectBoundingBox">
      <stop offset="0" stop-color="#fff" stop-opacity="0.122"/>
      <stop offset="0.54" stop-color="gray" stop-opacity="0.122"/>
      <stop offset="1" stop-color="#fff" stop-opacity="0.122"/>
    </linearGradient>
  </defs>
  <g id="notes-illustration" transform="translate(0 -0.002)">
    <rect id="Rectangle_11" data-name="Rectangle 11" class="cls-1" width="280" height="155.224" transform="translate(0 93.07)"/>
    <rect id="Rectangle_12" data-name="Rectangle 12" class="cls-2" width="274.079" height="151.108" transform="translate(2.962 95.128)"/>
    <rect id="Rectangle_13" data-name="Rectangle 13" class="cls-1" width="134.325" height="143.891" transform="translate(5.672 98.773)"/>
    <rect id="Rectangle_14" data-name="Rectangle 14" class="cls-3" width="134.325" height="143.891" transform="translate(140 98.773)"/>
    <rect id="Rectangle_15" data-name="Rectangle 15" class="cls-4" width="132.152" height="139.543" transform="translate(7.848 100.946)"/>
    <rect id="Rectangle_16" data-name="Rectangle 16" class="cls-4" width="132.152" height="139.543" transform="translate(140 100.946)"/>
    <rect id="Rectangle_17" data-name="Rectangle 17" class="cls-5" width="93.027" height="5.218" transform="translate(19.583 110.509)"/>
    <rect id="Rectangle_18" data-name="Rectangle 18" class="cls-5" width="34.777" height="5.218" transform="translate(19.583 121.811)"/>
    <rect id="Rectangle_19" data-name="Rectangle 19" class="cls-5" width="34.777" height="5.218" transform="translate(67.401 121.811)"/>
    <rect id="Rectangle_20" data-name="Rectangle 20" class="cls-6" width="34.777" height="5.218" transform="translate(77.834 221.362)"/>
    <rect id="Rectangle_21" data-name="Rectangle 21" class="cls-7" width="34.777" height="5.218" transform="translate(77.834 221.362)"/>
    <rect id="Rectangle_22" data-name="Rectangle 22" class="cls-5" width="93.027" height="5.218" transform="translate(19.583 133.117)"/>
    <rect id="Rectangle_23" data-name="Rectangle 23" class="cls-5" width="55.642" height="5.218" transform="translate(19.583 144.419)"/>
    <rect id="Rectangle_24" data-name="Rectangle 24" class="cls-5" width="93.027" height="5.218" transform="translate(160.432 110.509)"/>
    <rect id="Rectangle_25" data-name="Rectangle 25" class="cls-5" width="34.777" height="5.218" transform="translate(160.432 121.811)"/>
    <rect id="Rectangle_26" data-name="Rectangle 26" class="cls-5" width="34.777" height="5.218" transform="translate(208.25 121.811)"/>
    <rect id="Rectangle_27" data-name="Rectangle 27" class="cls-5" width="93.027" height="5.218" transform="translate(160.432 133.117)"/>
    <rect id="Rectangle_28" data-name="Rectangle 28" class="cls-5" width="55.642" height="5.218" transform="translate(160.432 144.419)"/>
    <rect id="Rectangle_29" data-name="Rectangle 29" class="cls-1" width="84.771" height="39.558" transform="translate(18.28 171.805)"/>
    <rect id="Rectangle_30" data-name="Rectangle 30" class="cls-6" width="82.595" height="36.516" transform="translate(19.583 173.544)"/>
    <path id="Path_1" data-name="Path 1" class="cls-1" d="M625.748,596.678l-5.242.114.118-1.823-13.295.284,10.519,1.594-58.112,1.258.028,1.365-7.792.166.055,2.477L552,600.773l-8.676,1.781,8.735.949.035,1.59,7.8-.166.017.908,66.015-1.427Z" transform="translate(-355.069 -388.822)"/>
    <rect id="Rectangle_31" data-name="Rectangle 31" class="cls-8" width="62.599" height="7.39" transform="translate(269.215 215.733) rotate(178.75)"/>
    <rect id="Rectangle_32" data-name="Rectangle 32" class="cls-8" width="8.693" height="5.218" transform="translate(207.917 216.196) rotate(178.75)"/>
    <path id="Path_2" data-name="Path 2" class="cls-6" d="M559.281,615.2,551,614.291l8.225-1.7Z" transform="translate(-360.088 -400.337)"/>
    <path id="Path_3" data-name="Path 3" class="cls-9" d="M738.6,598.749l.142-2.179-12.605.277" transform="translate(-474.545 -389.867)"/>
    <line id="Line_1" data-name="Line 1" class="cls-10" x2="5.655" y2="3.25" transform="translate(224.521 197.265)"/>
    <line id="Line_2" data-name="Line 2" class="cls-10" x2="5.655" y2="3.247" transform="translate(160.252 160.347)"/>
    <circle id="Ellipse_1" data-name="Ellipse 1" class="cls-11" cx="15.651" cy="15.651" r="15.651" transform="translate(189.597 195.273) rotate(-60.12)"/>
    <circle id="Ellipse_2" data-name="Ellipse 2" class="cls-11" cx="15.651" cy="15.651" r="15.651" transform="translate(158.229 177.003) rotate(-60.12)"/>
    <circle id="Ellipse_3" data-name="Ellipse 3" class="cls-12" cx="13.475" cy="13.475" r="13.475" transform="translate(161.2 176.2) rotate(-60.12)"/>
    <circle id="Ellipse_4" data-name="Ellipse 4" class="cls-12" cx="13.475" cy="13.475" r="13.475" transform="translate(192.864 194.39) rotate(-60.12)"/>
    <line id="Line_3" data-name="Line 3" class="cls-13" x2="4.522" y2="2.599" transform="translate(193.074 178.7)"/>
    <path id="Path_4" data-name="Path 4" class="cls-12" d="M678.9,556.651a13.478,13.478,0,0,1,22.32-1.563A13.475,13.475,0,1,0,678.173,568.6,13.454,13.454,0,0,1,678.9,556.651Z" transform="translate(-509.224 -389.138)"/>
    <path id="Path_5" data-name="Path 5" class="cls-12" d="M770.257,609.141a13.478,13.478,0,0,1,22.32-1.563,13.475,13.475,0,1,0-23.045,13.513A13.454,13.454,0,0,1,770.257,609.141Z" transform="translate(-568.929 -423.442)"/>
    <path id="Path_6" data-name="Path 6" class="cls-1" d="M842.541,148.858h-8.489A24.3,24.3,0,0,0,809.68,127.91a24.6,24.6,0,1,0,0,49.2,24.3,24.3,0,0,0,24.42-21.316h8.44a3.488,3.488,0,0,0,0-6.937Z" transform="translate(-580.953 -115.363)"/>
    <path id="Path_7" data-name="Path 7" class="cls-14" d="M844.217,152.01h-8.011a23.215,23.215,0,1,0,.045,5.89h7.969a2.945,2.945,0,0,0,0-5.89Z" transform="translate(-584.161 -117.98)"/>
    <circle id="Ellipse_5" data-name="Ellipse 5" class="cls-15" cx="18.017" cy="18.017" r="18.017" transform="translate(211.722 19.131)"/>
    <path id="Path_8" data-name="Path 8" class="cls-16" d="M867,155.91s12.127.693,11.087,15.938" transform="translate(-634.489 -133.661)"/>
    <rect id="Rectangle_33" data-name="Rectangle 33" class="cls-17" width="50.465" height="82.113" transform="translate(46.668 49.781) rotate(-80.54)"/>
    <rect id="Rectangle_34" data-name="Rectangle 34" class="cls-4" width="47.097" height="79.331" transform="translate(48.764 47.991) rotate(-80.54)"/>
    <g id="Group_14" data-name="Group 14" class="cls-18" transform="translate(79.898 15.892)">
      <rect id="Rectangle_35" data-name="Rectangle 35" class="cls-6" width="10.093" height="7.47" transform="translate(40.918 0) rotate(9.46)"/>
      <rect id="Rectangle_36" data-name="Rectangle 36" class="cls-6" width="38.758" height="2.422" transform="translate(1.264 13.243) rotate(9.46)"/>
      <rect id="Rectangle_37" data-name="Rectangle 37" class="cls-6" width="28.259" height="1.615" transform="translate(0.265 19.213) rotate(9.46)"/>
    </g>
    <rect id="Rectangle_38" data-name="Rectangle 38" class="cls-19" width="50.465" height="82.113" transform="translate(11.691 50.982) rotate(-80.54)"/>
    <rect id="Rectangle_39" data-name="Rectangle 39" class="cls-4" width="47.097" height="79.331" transform="translate(13.788 49.188) rotate(-80.54)"/>
    <g id="Group_15" data-name="Group 15" class="cls-18" transform="translate(44.926 17.091)">
      <rect id="Rectangle_40" data-name="Rectangle 40" class="cls-6" width="10.093" height="7.47" transform="translate(40.915 0) rotate(9.46)"/>
      <rect id="Rectangle_41" data-name="Rectangle 41" class="cls-6" width="38.758" height="2.422" transform="translate(1.261 13.243) rotate(9.46)"/>
      <rect id="Rectangle_42" data-name="Rectangle 42" class="cls-6" width="28.259" height="1.615" transform="translate(0.265 19.213) rotate(9.46)"/>
    </g>
    <rect id="Rectangle_43" data-name="Rectangle 43" class="cls-20" width="6.237" height="139.633" transform="translate(136.882 100.693)"/>
    <path id="Path_9" data-name="Path 9" class="cls-1" d="M349.314,354.67l-11.929-10.391L325.06,354.67V291.61h24.254Z" transform="translate(-212.432 -190.571)"/>
    <path id="Path_10" data-name="Path 10" class="cls-8" d="M350.2,352.591,339.8,342.543,329.06,352.591V291.61H350.2Z" transform="translate(-215.046 -190.571)"/>
  </g>
</svg>
