<svg xmlns="http://www.w3.org/2000/svg" viewBox="0 0 195 69"><defs><style>.a{fill:#6b93ff;}.b,.c{fill:#fff;}.c{font-size:55px;font-family:Lobster-Regular, Lobster;}</style></defs><g transform="translate(-2045 -433)"><g transform="translate(1161 -35)"><rect class="a" width="60" height="60" rx="10" transform="translate(884 472)"/><path class="b" d="M33.918,0C30.488.236,6.393,2.53,4.708,19.05c-.2,1.766-.321,3.54-.4,5.315L16.159,12.529a1.06,1.06,0,0,1,1.5,1.5L.471,31.2a1.591,1.591,0,1,0,2.251,2.248l3.784-3.78a74.872,74.872,0,0,0,8.343-.488,15.8,15.8,0,0,0,8.782-3.745H16.944L26.667,22.2a26.281,26.281,0,0,0,2.017-3.121H23.309l7.057-3.524A54.063,54.063,0,0,0,33.918,0Z" transform="translate(897.102 484.156)"/></g><text class="c" transform="translate(2120 488)"><tspan x="0" y="0">Quire</tspan></text></g></svg>